<svg width="168" height="178" viewBox="0 0 168 178" fill="none" xmlns="http://www.w3.org/2000/svg">
<path d="M80.0041 89.8598C79.9973 89.4677 80.2204 89.1078 80.5746 88.9394L155.05 53.5345C155.706 53.2228 156.465 53.6918 156.479 54.4178L157.98 129.923C157.988 130.313 157.769 130.671 157.418 130.842L82.755 167.183C82.0975 167.503 81.3301 167.032 81.3175 166.301L80.0041 89.8598Z" fill="black"/>
<path fill-rule="evenodd" clip-rule="evenodd" d="M80.0041 89.8595C79.9973 89.4674 80.2204 89.1076 80.5746 88.9392L155.05 53.5343C155.706 53.2225 156.465 53.6916 156.479 54.4176L157.98 129.923C157.988 130.312 157.769 130.671 157.418 130.842L82.755 167.183C82.0975 167.503 81.3301 167.032 81.3175 166.301L80.0041 89.8595ZM76.2811 79.9078L150.757 44.5029C157.97 41.0736 166.318 46.2333 166.477 54.2188L167.978 129.724C168.064 134.011 165.65 137.957 161.795 139.833L87.1315 176.174C79.8989 179.695 71.4572 174.515 71.319 166.473L70.0055 90.0313C69.9314 85.7182 72.3852 81.7599 76.2811 79.9078Z" fill="black"/>
<path fill-rule="evenodd" clip-rule="evenodd" d="M10.9506 125.993C10.955 126.344 11.1424 126.666 11.4447 126.843L76.4551 164.968C77.1284 165.363 77.9744 164.869 77.9608 164.088L76.6492 88.6222C76.6432 88.274 76.4564 87.9541 76.1563 87.7775L11.5206 49.7686C10.8492 49.3738 10.0041 49.8642 10.0138 50.6431L10.9506 125.993ZM16.5896 41.1486L81.2253 79.1575C84.5271 81.0991 86.5811 84.6186 86.6477 88.4484L87.9593 163.915C88.1085 172.5 78.8031 177.938 71.3963 173.594L6.38597 135.469C3.06111 133.52 0.999338 129.972 0.951418 126.118L0.014579 50.7674C-0.0919388 42.2002 9.20399 36.8055 16.5896 41.1486Z" fill="black"/>
<path fill-rule="evenodd" clip-rule="evenodd" d="M87.0728 10.098C87.3713 9.95511 87.7212 9.96922 88.0072 10.1356L153.336 48.1371C154.034 48.5434 153.987 49.5675 153.255 49.9083L78.557 84.6483C78.259 84.7869 77.9119 84.7702 77.6285 84.6037L13.6126 46.9762C12.9221 46.5703 12.9652 45.5577 13.6878 45.212L87.0728 10.098ZM93.0354 1.49168L158.364 39.4932C166.047 43.9626 165.531 55.2273 157.472 58.9756L82.774 93.7156C79.4959 95.2402 75.6779 95.0567 72.5612 93.2247L8.54534 55.5972C0.949121 51.1323 1.42349 39.9945 9.37152 36.1915L82.7565 1.07742C86.0404 -0.493851 89.8888 -0.338695 93.0354 1.49168Z" fill="black"/>
<path fill-rule="evenodd" clip-rule="evenodd" d="M75.1662 176.2L6.3407 135.434C3.03788 133.478 0.993796 129.941 0.947329 126.103L0.000810668 47.9176C-0.0509738 43.6401 2.38188 39.7204 6.23824 37.8685L82.8364 1.08506C86.1315 -0.497296 89.9973 -0.339417 93.1523 1.50622L161.211 41.3188C164.527 43.2586 166.59 46.7879 166.655 50.629L167.98 129.582C168.052 133.862 165.634 137.795 161.783 139.664L85.5729 176.632C82.2512 178.244 78.3427 178.081 75.1662 176.2ZM10.5671 46.883C10.2165 47.0514 9.99537 47.4077 10.0001 47.7966L10.9466 125.982C10.9508 126.33 11.1366 126.652 11.4369 126.83L80.2624 167.596C80.5511 167.767 80.9065 167.781 81.2084 167.635L157.418 130.666C157.768 130.496 157.988 130.139 157.982 129.75L156.656 50.7968C156.65 50.4476 156.463 50.1268 156.161 49.9504L88.1031 10.1378C87.8162 9.97004 87.4648 9.95569 87.1652 10.0995L10.5671 46.883Z" fill="black"/>
<path fill-rule="evenodd" clip-rule="evenodd" d="M82.647 14.291C63.4333 14.291 47.8574 21.6917 47.8574 30.8209V50.0417C47.8574 59.1709 63.4333 66.5715 82.647 66.5715C101.861 66.5715 117.437 59.1709 117.437 50.0417V30.8209C117.437 21.6917 101.861 14.291 82.647 14.291ZM82.9922 44.8691C98.4562 44.8691 110.992 39.9443 110.992 33.8691C110.992 27.794 98.4562 22.8691 82.9922 22.8691C67.5282 22.8691 54.9922 27.794 54.9922 33.8691C54.9922 39.9443 67.5282 44.8691 82.9922 44.8691Z" fill="black"/>
</svg>
