<svg width="775" height="178" viewBox="0 0 775 178" fill="none" xmlns="http://www.w3.org/2000/svg">
<path d="M80.0119 89.9896C80.0051 89.5975 80.2282 89.2377 80.5824 89.0693L155.058 53.6644C155.714 53.3527 156.473 53.8217 156.487 54.5477L157.988 130.053C157.996 130.442 157.776 130.801 157.426 130.972L82.7628 167.313C82.1053 167.633 81.3379 167.162 81.3253 166.431L80.0119 89.9896Z" fill="black"/>
<path fill-rule="evenodd" clip-rule="evenodd" d="M80.0119 89.9914C80.0051 89.5993 80.2282 89.2394 80.5824 89.071L155.058 53.6661C155.714 53.3544 156.473 53.8234 156.487 54.5494L157.988 130.054C157.996 130.444 157.776 130.803 157.426 130.973L82.7628 167.315C82.1053 167.635 81.3379 167.164 81.3253 166.433L80.0119 89.9914ZM76.2889 80.0396L150.764 44.6347C157.978 41.2055 166.326 46.3651 166.485 54.3506L167.986 129.856C168.071 134.143 165.658 138.088 161.802 139.965L87.1393 176.306C79.9067 179.827 71.465 174.647 71.3268 166.605L70.0134 90.1632C69.9392 85.8501 72.393 81.8917 76.2889 80.0396Z" fill="black"/>
<path fill-rule="evenodd" clip-rule="evenodd" d="M10.9585 126.124C10.9628 126.474 11.1502 126.797 11.4525 126.974L76.4629 165.099C77.1362 165.494 77.9822 165 77.9686 164.219L76.657 88.753C76.651 88.4049 76.4642 88.0849 76.1641 87.9084L11.5284 49.8995C10.857 49.5047 10.0119 49.9951 10.0216 50.7739L10.9585 126.124ZM16.5974 41.2795L81.2331 79.2884C84.5349 81.23 86.589 84.7494 86.6555 88.5793L87.9671 164.046C88.1163 172.631 78.8109 178.069 71.4042 173.725L6.39379 135.6C3.06892 133.65 1.00715 130.103 0.959231 126.248L0.0223915 50.8983C-0.0841263 42.331 9.21181 36.9363 16.5974 41.2795Z" fill="black"/>
<path fill-rule="evenodd" clip-rule="evenodd" d="M87.0806 10.2288C87.3791 10.086 87.729 10.1001 88.015 10.2665L153.344 48.268C154.042 48.6743 153.995 49.6984 153.263 50.0391L78.5648 84.7792C78.2668 84.9177 77.9197 84.9011 77.6364 84.7345L13.6205 47.107C12.9299 46.7011 12.973 45.6886 13.6956 45.3429L87.0806 10.2288ZM93.0432 1.62254L158.372 39.6241C166.055 44.0934 165.539 55.3581 157.48 59.1065L82.7818 93.8465C79.5037 95.3711 75.6858 95.1875 72.569 93.3556L8.55315 55.7281C0.956934 51.2631 1.4313 40.1254 9.37933 36.3223L82.7644 1.20828C86.0482 -0.362992 89.8966 -0.207836 93.0432 1.62254Z" fill="black"/>
<path fill-rule="evenodd" clip-rule="evenodd" d="M75.174 176.331L6.34852 135.566C3.04569 133.609 1.00161 130.073 0.955141 126.234L0.00862317 48.0495C-0.0431613 43.7719 2.3897 39.8522 6.24605 38.0004L82.8442 1.21689C86.1393 -0.365461 90.0051 -0.207581 93.1602 1.63806L161.219 41.4507C164.535 43.3905 166.598 46.9197 166.663 50.7608L167.988 129.714C168.06 133.994 165.642 137.927 161.791 139.795L85.5807 176.764C82.259 178.375 78.3505 178.213 75.174 176.331ZM10.5749 47.0148C10.2244 47.1832 10.0032 47.5395 10.0079 47.9284L10.9544 126.113C10.9586 126.462 11.1445 126.784 11.4447 126.962L80.2702 167.727C80.559 167.898 80.9143 167.913 81.2162 167.767L157.426 130.798C157.776 130.628 157.996 130.271 157.989 129.882L156.664 50.9287C156.658 50.5795 156.471 50.2586 156.169 50.0823L88.1109 10.2697C87.824 10.1019 87.4726 10.0875 87.173 10.2314L10.5749 47.0148Z" fill="black"/>
<path fill-rule="evenodd" clip-rule="evenodd" d="M82.6548 14.4219C63.4411 14.4219 47.8652 21.8225 47.8652 30.9517V50.1725C47.8652 59.3017 63.4411 66.7024 82.6548 66.7024C101.869 66.7024 117.444 59.3017 117.444 50.1725V30.9517C117.444 21.8225 101.869 14.4219 82.6548 14.4219ZM83 45C98.464 45 111 40.0751 111 34C111 27.9249 98.464 23 83 23C67.536 23 55 27.9249 55 34C55 40.0751 67.536 45 83 45Z" fill="black"/>
<path d="M316.054 91.27C316.054 103.046 312.257 113.158 304.662 121.606C297.153 130.054 286.657 134.278 273.174 134.278C259.606 134.278 249.196 130.054 241.942 121.606C234.689 113.158 231.062 103.131 231.062 91.526C231.062 79.4087 234.902 69.2114 242.582 60.934C250.262 52.6567 260.63 48.518 273.686 48.518C286.998 48.518 297.366 52.742 304.79 61.19C312.3 69.5527 316.054 79.5794 316.054 91.27ZM297.494 91.782C297.494 82.9074 295.446 75.9954 291.35 71.046C287.254 66.0967 281.324 63.622 273.558 63.622C265.281 63.622 259.222 66.2674 255.382 71.558C251.542 76.7634 249.622 83.2914 249.622 91.142C249.622 98.7367 251.5 105.307 255.254 110.854C259.009 116.401 265.281 119.174 274.07 119.174C282.177 119.174 288.108 116.657 291.862 111.622C295.617 106.502 297.494 99.8887 297.494 91.782ZM389.387 102.79C389.387 111.323 387.126 118.705 382.603 124.934C378.166 131.163 371.595 134.278 362.891 134.278C354.785 134.278 348.897 131.419 345.227 125.702V147.462H355.467V160.262H321.035V147.462H328.715V87.686H320.395V75.27H345.227V86.278C346.763 82.95 349.067 80.0914 352.139 77.702C355.211 75.3127 359.393 74.118 364.683 74.118C372.022 74.118 377.953 76.6354 382.475 81.67C387.083 86.7047 389.387 93.7447 389.387 102.79ZM372.235 104.454C372.235 98.822 370.955 94.5554 368.395 91.654C365.921 88.6674 362.721 87.174 358.795 87.174C354.529 87.174 351.243 88.7527 348.939 91.91C346.721 95.0674 345.526 99.078 345.355 103.942L345.227 105.99C345.227 110.683 346.465 114.395 348.939 117.126C351.414 119.857 354.699 121.222 358.795 121.222C362.721 121.222 365.921 119.857 368.395 117.126C370.955 114.395 372.235 110.171 372.235 104.454ZM451.504 114.822C451.078 119.942 448.56 124.465 443.952 128.39C439.344 132.315 432.902 134.278 424.624 134.278C416.006 134.278 408.88 131.846 403.248 126.982C397.702 122.118 394.928 114.865 394.928 105.222C394.928 96.3474 397.446 88.966 402.48 83.078C407.6 77.1047 414.726 74.118 423.856 74.118C431.878 74.118 438.363 76.422 443.312 81.03C448.347 85.638 450.907 91.6967 450.992 99.206C450.992 102.022 450.694 104.795 450.096 107.526H412.208C413.147 116.657 417.67 121.222 425.776 121.222C430.214 121.222 433.2 120.155 434.736 118.022C436.358 115.889 437.339 113.969 437.68 112.262L451.504 114.822ZM433.968 97.926C434.31 95.0247 433.67 92.294 432.048 89.734C430.512 87.174 427.782 85.894 423.856 85.894C420.443 85.894 417.798 87.0034 415.92 89.222C414.043 91.4407 412.848 94.342 412.336 97.926H433.968ZM528.483 132.998H496.611V120.582H504.291V100.486C504.291 95.5367 503.438 91.9954 501.731 89.862C500.11 87.7287 497.678 86.662 494.435 86.662C490.51 86.662 487.481 87.8994 485.347 90.374C483.214 92.7634 482.105 95.9207 482.019 99.846V120.582H489.699V132.998H457.827V120.582H465.507V87.814H457.187V75.27H482.019V84.102C485.859 77.446 492.046 74.118 500.579 74.118C506.041 74.118 510.777 75.7394 514.787 78.982C518.798 82.2247 520.803 87.2594 520.803 94.086V120.582H528.483V132.998ZM604.522 124.166C601.792 127.153 597.397 129.585 591.338 131.462C585.365 133.339 579.392 134.278 573.418 134.278C561.557 134.278 551.616 130.481 543.594 122.886C535.573 115.206 531.562 105.179 531.562 92.806C531.562 86.3207 532.928 79.6647 535.658 72.838C538.389 66.0114 542.869 60.2514 549.098 55.558C555.328 50.8647 563.69 48.518 574.186 48.518C581.269 48.518 587.37 49.5847 592.49 51.718C597.61 53.766 601.493 56.0274 604.138 58.502L606.186 77.83L592.234 79.11L590.442 68.102C588.224 66.6514 585.536 65.542 582.378 64.774C579.221 64.006 576.234 63.622 573.418 63.622C566.25 63.622 560.533 66.0114 556.266 70.79C552.085 75.5687 549.994 82.5234 549.994 91.654C549.994 101.297 552.298 108.294 556.906 112.646C561.514 116.998 567.402 119.174 574.57 119.174C581.312 119.174 586.602 118.022 590.442 115.718L592.234 103.302L606.186 104.582L604.522 124.166ZM698.801 132.998H665.649V118.406H672.305L669.233 109.958H640.945L637.489 118.406H645.297V132.998H612.529V118.406H620.081L643.889 64.39H632.369V49.798H660.913L690.865 118.406H698.801V132.998ZM664.625 97.67L655.921 74.246H655.153L645.809 97.67H664.625ZM767.988 132.998H703.732V118.406H712.692V64.39H703.732V49.798H767.22L769.78 74.118L755.188 75.398L752.628 64.39H729.844V83.974H764.916V98.438H729.844V118.406H753.396L755.956 107.398L770.548 108.678L767.988 132.998Z" fill="black"/>
</svg>
